<?xml version="1.0" encoding="UTF-8"?>
<!DOCTYPE svg PUBLIC "-//W3C//DTD SVG 1.1//EN" "http://www.w3.org/Graphics/SVG/1.1/DTD/svg11.dtd">
<!-- Creator: CorelDRAW 2020 (64-Bit) -->
<svg xmlns="http://www.w3.org/2000/svg" xml:space="preserve" width="8.4666mm" height="8.4666mm" version="1.1" style="shape-rendering:geometricPrecision; text-rendering:geometricPrecision; image-rendering:optimizeQuality; fill-rule:evenodd; clip-rule:evenodd"
viewBox="0 0 846.66 846.66"
 xmlns:xlink="http://www.w3.org/1999/xlink"
 xmlns:xodm="http://www.corel.com/coreldraw/odm/2003">
 <defs>
  <style type="text/css">
   <![CDATA[
    .fil0 {fill:#FF6600}
    .fil1 {fill:white}
   ]]>
  </style>
 </defs>
 <g id="Layer_x0020_1">
  <metadata id="CorelCorpID_0Corel-Layer"/>
  <g id="_2735689937600">
   <rect class="fil0" x="21.68" y="21.68" width="803.29" height="803.29" rx="324.29" ry="324.29"/>
   <path class="fil1" d="M393.04 293.91c0.03,-0.19 0.06,-0.37 0.09,-0.56 10.46,-62.63 49.11,-95.91 109.79,-119.29l59.75 -27.12 -0.66 381.85c0.87,96.05 -86.04,168.68 -168.61,173.05l0 0.41c-7.45,0.77 -15.01,1.17 -22.67,1.17 -85.96,0 -200.47,-66.31 -200.47,-162.83 0,-51.1 37.83,-108.19 93.04,-108.19 32.09,0 67.05,22.34 75.41,54.35 1.69,5.16 2.6,10.67 2.6,16.39 0,2.27 -0.14,4.51 -0.42,6.71 -6.97,0 -47.55,-1.15 -51.29,0l-0.01 0c-49.06,15.09 -21.21,79.8 33.17,79.8 38.81,0 70.28,-31.47 70.28,-70.28 0,-36.34 0,-74.6 0,-112.08l0 -80.53 0 -32.85zm109.88 231.8l0 -280.3c-27.57,8.94 -44.08,30.86 -50.13,60l0 220.3c0.09,0 -0.34,3.35 -0.39,3.7 -6.59,53.28 -32.68,85.9 -68.95,107.74 3.35,-0.48 6.32,-0.95 9.59,-1.55 54.48,-10.01 97.23,-37.97 109.88,-109.89z"/>
   <circle class="fil1" cx="632.19" cy="187.43" r="44.21"/>
  </g>
 </g>
</svg>
